<svg xmlns="http://www.w3.org/2000/svg" viewBox="0 0 64 64" role="img" aria-label="BSAI icon">
  <defs>
    <linearGradient id="bg" x1="0%" y1="0%" x2="100%" y2="100%">
      <stop offset="0%" stop-color="#2563EB" />
      <stop offset="100%" stop-color="#10B981" />
    </linearGradient>
  </defs>
  <rect x="8" y="8" width="48" height="48" rx="16" fill="url(#bg)" opacity="0.12" />
  <rect x="10" y="10" width="44" height="44" rx="16" fill="none" stroke="url(#bg)" stroke-width="3" />
  <path d="M25 20c0-2 2-4 4-4h6c6 0 10 4 10 10 0 5-4 8-10 8h-6" fill="none" stroke="url(#bg)" stroke-width="4.5" stroke-linecap="round" stroke-linejoin="round" />
  <path d="M25 44c0 2 2 4 4 4h6c6 0 10-4 10-10 0-5-4-8-10-8h-6" fill="none" stroke="url(#bg)" stroke-width="4.5" stroke-linecap="round" stroke-linejoin="round" />
  <circle cx="31" cy="32" r="4" fill="#10B981" />
  <circle cx="44" cy="24" r="2.5" fill="#2563EB" />
  <circle cx="44" cy="40" r="2.5" fill="#2563EB" />
  <path d="M35 32h7" stroke="#0F172A" stroke-width="2.5" stroke-linecap="round" />
  <path d="M41 24l-7 8" stroke="#0F172A" stroke-width="2.5" stroke-linecap="round" />
  <path d="M41 40l-7-8" stroke="#0F172A" stroke-width="2.5" stroke-linecap="round" />
</svg>